# xmcd
#
# Track frame offsets: 
#        150
#        19854
#        41859
#        59383
#        72686
#        88919
#        111535
#        130134
#        141365
#        173130
#
# Disc length: 2692 seconds
#
# Revision: 0
# Processed by: cddbd v1.5.2PL0 Copyright (c) Steve Scherf et al.
# Submitted via: ExactAudioCopy v0.95b2
#
DISCID=9e0a820a
DTITLE=Blind Boys of Alabama - Retrospective disc 3
DYEAR=2007
DGENRE=Gospel
TTITLE0=Holdin` On
TTITLE1=Sacrifice
TTITLE2=Somebody`s Gone
TTITLE3=Speak For Jesus
TTITLE4=Walk In Jerusalem
TTITLE5=Looking Back
TTITLE6=Hush
TTITLE7=King Jesus
TTITLE8=If I Had A Hammer (Part 2)
TTITLE9=Amazing Grace (Part 2)
EXTD=
EXTT0=
EXTT1=
EXTT2=
EXTT3=
EXTT4=
EXTT5=
EXTT6=
EXTT7=
EXTT8=
EXTT9=
PLAYORDER=
